<?xml version="1.0" encoding="UTF-8"?>
<svg xmlns="http://www.w3.org/2000/svg" xmlns:xlink="http://www.w3.org/1999/xlink" width="309px" height="305px" viewBox="0 0 309 305" version="1.1">
<defs>
<clipPath id="clip1">
  <path d="M 133.269531 23.324219 L 308.609375 23.324219 L 308.609375 280.949219 L 133.269531 280.949219 Z M 133.269531 23.324219 "/>
</clipPath>
<clipPath id="clip2">
  <path d="M 0.015625 0 L 108.375 0 L 108.375 304.273438 L 0.015625 304.273438 Z M 0.015625 0 "/>
</clipPath>
</defs>
<g id="surface1">
<g clip-path="url(#clip1)" clip-rule="nonzero">
<path style=" stroke:none;fill-rule:nonzero;fill:rgb(16.470588%,92.54902%,94.901961%);fill-opacity:1;" d="M 186.59375 280.949219 C 168.773438 280.949219 155.4375 269.519531 146.582031 246.664062 C 137.707031 223.808594 133.269531 192.351562 133.269531 152.300781 C 133.269531 127.917969 135.273438 105.976562 139.28125 86.472656 C 143.292969 67.011719 149.304688 51.621094 157.324219 40.304688 C 165.34375 28.984375 175.101562 23.324219 186.59375 23.324219 C 191.316406 23.324219 195.53125 24.238281 199.234375 26.066406 C 202.925781 27.9375 206.90625 31.050781 211.183594 35.40625 L 211.183594 86.34375 C 203.609375 77.417969 195.636719 72.957031 187.261719 72.957031 C 181.46875 72.957031 176.328125 76.371094 171.839844 83.207031 C 167.332031 90.085938 163.828125 99.511719 161.335938 111.484375 C 158.839844 123.457031 157.59375 136.953125 157.59375 151.972656 C 157.59375 175.917969 160.160156 195.117188 165.289062 209.570312 C 170.40625 224.070312 177.503906 231.316406 186.59375 231.316406 C 190.871094 231.316406 195.058594 229.726562 199.15625 226.550781 C 203.253906 223.414062 207.574219 218.910156 212.117188 213.03125 L 219.203125 261.03125 C 214.035156 267.5625 208.601562 272.523438 202.898438 275.917969 C 197.195312 279.273438 191.761719 280.949219 186.59375 280.949219 Z M 308.609375 27.894531 L 308.609375 78.179688 L 280.945312 78.179688 L 280.945312 275.398438 L 256.890625 275.398438 L 256.890625 78.179688 L 229.226562 78.179688 L 229.226562 27.894531 Z M 308.609375 27.894531 "/>
</g>
<g clip-path="url(#clip2)" clip-rule="nonzero">
<path style=" stroke:none;fill-rule:nonzero;fill:rgb(15.294118%,94.901961%,85.490196%);fill-opacity:1;" d="M 54.269531 19.132812 C 68.761719 43.515625 91.867188 55.335938 101.71875 59.480469 C 102.09375 67.914062 102.285156 76.296875 102.285156 84.5 C 102.285156 168.582031 83.941406 245.550781 54.199219 287.273438 C 24.449219 245.539062 6.109375 168.574219 6.109375 84.5 C 6.109375 76.378906 6.300781 68.058594 6.675781 59.640625 C 16.730469 55.738281 40.289062 44.328125 54.269531 19.132812 M 54.105469 0 C 39.378906 35.597656 1.234375 46.496094 1.234375 46.496094 C 0.453125 58.902344 0.015625 71.566406 0.015625 84.5 C 0.015625 179.820312 21.984375 262.535156 54.195312 304.273438 C 86.414062 262.53125 108.375 179.820312 108.375 84.5 C 108.375 71.566406 107.945312 58.902344 107.164062 46.496094 C 107.164062 46.496094 70.023438 34.503906 54.105469 0 Z M 54.105469 0 "/>
</g>
<path style=" stroke:none;fill-rule:nonzero;fill:rgb(15.294118%,94.901961%,85.490196%);fill-opacity:1;" d="M 17.613281 79.15625 C 17.070312 87.75 16.769531 96.507812 16.769531 105.441406 C 16.769531 171.261719 31.949219 228.386719 54.195312 257.214844 C 76.445312 228.382812 91.625 171.261719 91.625 105.441406 C 91.625 96.507812 91.316406 87.75 90.785156 79.15625 C 90.785156 79.15625 65.125 70.882812 54.128906 47.050781 C 43.957031 71.632812 17.613281 79.15625 17.613281 79.15625 Z M 17.613281 79.15625 "/>
</g>
</svg>
