<svg xmlns="http://www.w3.org/2000/svg" version="1.1" xmlns:xlink="http://www.w3.org/1999/xlink" xmlns:svgjs="http://svgjs.dev/svgjs" width="2000" height="328" viewBox="0 0 2000 328"><g transform="matrix(1,0,0,1,-1.2121185661217169,1.0218527628582308)"><svg viewBox="0 0 396 65" data-background-color="#ffffff" preserveAspectRatio="xMidYMid meet" height="328" width="2000" xmlns="http://www.w3.org/2000/svg" xmlns:xlink="http://www.w3.org/1999/xlink"><g id="tight-bounds" transform="matrix(1,0,0,1,0.2399995170223974,-0.20249869028720013)"><svg viewBox="0 0 395.52 65.40499999999999" height="65.40499999999999" width="395.52"><g><svg viewBox="0 0 395.52 65.40499999999999" height="65.40499999999999" width="395.52"><g><svg viewBox="0 0 395.52 65.40499999999999" height="65.40499999999999" width="395.52"><g id="textblocktransform"><svg viewBox="0 0 395.52 65.40499999999999" height="65.40499999999999" width="395.52" id="textblock"><g><svg viewBox="0 0 395.52 65.40499999999999" height="65.40499999999999" width="395.52"><g transform="matrix(1,0,0,1,0,0)"><svg width="395.52" viewBox="1.850000023841858 -37.599998474121094 230.38999938964844 38.099998474121094" height="65.40499999999999" data-palette-color="#34dced"><path d="M19.2-37.6L19.2-37.6Q22.2-37.6 24.83-36.75 27.45-35.9 29.48-34.38 31.5-32.85 32.8-30.8 34.1-28.75 34.55-26.35L34.55-26.35Q34.8-25.4 34.63-25.13 34.45-24.85 33.95-24.8L33.95-24.8 26.15-24.25Q25.65-24.25 25.53-24.48 25.4-24.7 25.3-25.15L25.3-25.15Q24.85-27.55 23.5-29.1 22.15-30.65 19.45-30.65L19.45-30.65Q16.2-30.65 14.3-27.93 12.4-25.2 12.4-18.8L12.4-18.8Q12.4-12.35 14.18-9.6 15.95-6.85 19.45-6.85L19.45-6.85Q22.15-6.85 24.18-8.22 26.2-9.6 27.5-12.95L27.5-12.95Q27.75-13.5 28.75-13.3L28.75-13.3 34.4-12.2Q34.6-12.15 34.88-11.88 35.15-11.6 35-10.7L35-10.7Q34.8-9.8 34.13-8.4 33.45-7 32.25-5.45 31.05-3.9 29.2-2.55 27.35-1.2 24.85-0.35 22.35 0.5 19.15 0.5L19.15 0.5Q13.85 0.5 9.95-1.98 6.05-4.45 3.95-8.85 1.85-13.25 1.85-18.95L1.85-18.95Q1.85-24.65 3.95-28.83 6.05-33 9.98-35.3 13.9-37.6 19.2-37.6L19.2-37.6ZM69.95-37.1L69.95-37.1Q70.55-37.1 70.72-36.8 70.9-36.5 70.6-36.05L70.6-36.05 58.85-16.95Q58.55-16.5 58.47-15.95 58.4-15.4 58.4-13.95L58.4-13.95 58.4-1.35Q58.4 0 56.9 0L56.9 0 49.5 0Q48.8 0 48.55-0.28 48.3-0.55 48.3-1.15L48.3-1.15 48.3-14.45Q48.3-15.2 48.15-15.58 48-15.95 47.65-16.5L47.65-16.5 35.9-35.8Q35.6-36.35 35.8-36.73 36-37.1 36.75-37.1L36.75-37.1 45.55-37.1Q46.25-37.1 46.52-36.9 46.8-36.7 47.15-36.15L47.15-36.15 53.9-24.1Q54.15-23.65 54.32-23.63 54.5-23.6 54.8-24.05L54.8-24.05 61.45-36.15Q61.7-36.75 62.02-36.93 62.35-37.1 63-37.1L63-37.1 69.95-37.1ZM73.64-30.75L73.64-36.05Q73.64-36.5 73.89-36.8 74.14-37.1 74.75-37.1L74.75-37.1 104.09-37.1Q104.65-37.1 104.92-36.8 105.19-36.5 105.19-36.05L105.19-36.05 105.19-30.75Q105.19-29.9 104.19-29.9L104.19-29.9 95.09-29.9Q94.5-29.9 94.5-29.4L94.5-29.4 94.5-1Q94.5 0 93.64 0L93.64 0 85.25 0Q84.39 0 84.39-0.95L84.39-0.95 84.39-29.2Q84.39-29.9 83.89-29.9L83.89-29.9 74.69-29.9Q73.64-29.9 73.64-30.75L73.64-30.75ZM141.09-1.5L141.09-1.5Q141.34-0.9 141.07-0.45 140.79 0 140.24 0L140.24 0 131.69 0Q130.74 0 130.44-0.95L130.44-0.95 125.44-14.4Q125.14-15.15 123.94-15.15L123.94-15.15 120.49-15.15Q120.14-15.15 120.02-14.95 119.89-14.75 119.89-14.6L119.89-14.6 119.89-1.35Q119.89 0 118.39 0L118.39 0 110.94 0Q110.29 0 110.04-0.28 109.79-0.55 109.79-1.15L109.79-1.15 109.79-36.05Q109.79-37.1 110.64-37.1L110.64-37.1 126.84-37.1Q133.84-37.1 137.69-34.4 141.54-31.7 141.54-26.7L141.54-26.7Q141.54-24.25 140.64-22.25 139.74-20.25 138.24-18.88 136.74-17.5 134.84-16.8L134.84-16.8Q134.39-16.6 134.64-15.9L134.64-15.9 141.09-1.5ZM126.19-21.85L126.19-21.85Q128.59-21.85 129.84-22.98 131.09-24.1 131.09-26.05L131.09-26.05Q131.09-28.2 129.67-29.33 128.24-30.45 126.19-30.45L126.19-30.45 120.94-30.45Q119.89-30.45 119.89-29.55L119.89-29.55 119.89-22.85Q119.89-21.85 120.64-21.85L120.64-21.85 126.19-21.85ZM144.09 0L144.09 0Q143.59 0 143.37-0.48 143.14-0.95 143.39-1.65L143.39-1.65 155.69-36.05Q155.89-36.6 156.19-36.85 156.49-37.1 157.09-37.1L157.09-37.1 165.79-37.1Q167.04-37.1 167.49-35.85L167.49-35.85 179.64-1.55Q179.79-1.1 179.64-0.55 179.49 0 178.94 0L178.94 0 170.34 0Q169.54 0 169.29-0.8L169.29-0.8 167.09-7.3Q166.99-7.5 166.87-7.68 166.74-7.85 166.34-7.85L166.34-7.85 154.99-7.85Q154.44-7.85 154.29-7.3L154.29-7.3 151.94-0.7Q151.84-0.4 151.59-0.2 151.34 0 150.84 0L150.84 0 144.09 0ZM157.14-15.45L164.09-15.45Q164.79-15.45 164.54-16.4L164.54-16.4 160.94-26.45Q160.84-26.7 160.64-26.7 160.44-26.7 160.34-26.45L160.34-26.45 156.69-16.4Q156.34-15.45 157.14-15.45L157.14-15.45ZM184.99-37.1L193.39-37.1Q194.24-37.1 194.24-36.15L194.24-36.15 194.24-1.35Q194.24-0.6 193.86-0.3 193.49 0 192.74 0L192.74 0 185.34 0Q184.64 0 184.39-0.28 184.14-0.55 184.14-1.15L184.14-1.15 184.14-36.05Q184.14-37.1 184.99-37.1L184.99-37.1ZM225.09-37.1L231.49-37.1Q232.24-37.1 232.24-36.3L232.24-36.3 232.24-0.85Q232.24-0.45 231.94-0.23 231.64 0 231.19 0L231.19 0 225.14 0Q224.79 0 224.51-0.1 224.24-0.2 223.84-0.7L223.84-0.7 209.04-21.1Q208.84-21.4 208.69-21.35 208.54-21.3 208.54-21.05L208.54-21.05 208.54-1Q208.59 0 207.44 0L207.44 0 201.39 0Q200.29 0 200.29-0.95L200.29-0.95 200.29-36.05Q200.29-37.1 201.29-37.1L201.29-37.1 208.44-37.1Q209.04-37.1 209.34-36.95 209.64-36.8 209.99-36.3L209.99-36.3 223.29-17.55Q223.64-17.1 223.86-17.15 224.09-17.2 224.09-17.75L224.09-17.75 224.09-36.15Q224.09-37.1 225.09-37.1L225.09-37.1Z" opacity="1" transform="matrix(1,0,0,1,0,0)" fill="#34dced" class="undefined-text-0" data-fill-palette-color="primary" id="text-0"></path></svg></g></svg></g></svg></g></svg></g></svg></g><defs></defs></svg><rect width="395.52" height="65.40499999999999" fill="none" stroke="none" visibility="hidden"></rect></g></svg></g></svg>